<?xml version="1.0" encoding="UTF-8" standalone="no"?>
<svg id="svg2" xmlns:rdf="http://www.w3.org/1999/02/22-rdf-syntax-ns#" xmlns="http://www.w3.org/2000/svg" height="50" width="200" version="1.1" xmlns:cc="http://creativecommons.org/ns#" xmlns:dc="http://purl.org/dc/elements/1.1/" viewBox="0 0 200 50.000001">
 <defs id="defs4">
  <clipPath id="clipPath4147" clipPathUnits="userSpaceOnUse">
   <path id="path4149" d="m0 612h792v-612h-792v612z"/>
  </clipPath>
 </defs>
 <g id="layer1" transform="translate(0 -1002.4)">
  <g id="g4141" transform="matrix(.36849 0 0 -.36849 -45.921 1140.1)">
   <g id="g4143">
    <g id="g4145" clip-path="url(#clipPath4147)">
     <g id="g4151" transform="translate(142.39 245.62)">
      <path id="path4153" d="m0 0v3.708c8.092 0 13.826 0.674 13.826 12.469v62.35c0 12.132-4.39 12.469-13.826 12.469v3.705h47.859v-3.705c-9.777 0-13.819-0.337-13.819-12.469v-62.35c0-11.795 5.052-12.469 13.819-12.469v-3.708h-47.859zm164.8 71.785v-72.458h-5.727l-72.463 74.811c0.347-2.02 0.347-3.7 0.347-5.725v-45.5c0-14.149 0-19.205 12.798-19.205v-3.708h-34.04v3.708c12.816 0 12.816 6.068 12.816 19.205v51.906c0 7.751 0 16.177-13.478 16.177v3.705h32.009l59.646-61.337c-0.334 1.684-0.334 2.7-0.334 5.059v33.362c0 13.481 0.334 19.211-12.462 19.211v3.705h34.039v-3.705c-12.47 0-13.151-5.392-13.151-19.211m117.62-39.767v-24.264c-13.481-6.743-26.29-10.113-39.099-10.113-35.384 0-56.614 20.895-56.614 47.18 0 28.313 24.263 51.902 55.27 51.902 7.758 0 13.485-1.349 19.552-3.371 4.383-1.35 7.069-3.03 9.768-3.03 2.363 0 3.035 4.046 3.372 6.401h3.366l3.04-32.69h-4.048c-1.686 6.405-4.726 11.798-8.77 15.503-6.393 6.402-15.161 9.773-25.271 9.773-21.23 0-33.693-16.846-33.693-42.126 0-24.935 15.162-42.122 35.377-42.122 6.073 0 11.46 1.343 18.202 4.377v24.939c0 8.089-1.343 11.119-12.804 11.119v3.709h42.803v-3.709c-10.787 0-10.451-3.365-10.451-13.478" fill="#006"/>
     </g>
     <g id="g4155" transform="translate(504.02 324.13)">
      <path id="path4157" d="m0 0c0-0.669 0-1.341 1.009-2.012 1.008 1.008 2.684 1.343 3.02 1.343-0.667 1.34-2.343 0-4.029 0.669m-1.004 17.109c0-1.341 1.004-1.674 1.345-2.012 1.009-0.671 1.345-0.671 2.339 0 1.013-0.671 1.349 0.671 1.685 0 0-2.012 0-3.018-0.336-4.695-0.336-2.351-2.343-2.012-4.029-3.022 0-1.006-1.004-2.684 0-3.687 1.009 0.672 1.686 1.003 3.362 1.679 0 1.002 1.003 2.008 2.348 2.679 0 3.022 1.004 6.04 1.004 9.058 0 0.669-0.678 1.341-1.681 2.013h-8.049c0-1.344 1.004-2.013 2.012-2.013m19.118-18.113 3.698-1.339v1.674h-3.357l-0.341-0.335zm-22.465 25.493c1.335 1.01 4.692 3.356 6.368 4.025-0.331 3.359-4.029 3.69-5.705 5.034h-1.34c-2.679-1.01-3.352-3.691-3.683-6.04 1.004-3.019 3.016-1.006 4.36-3.019m13.744 0.335c-0.667 0.675-2.679-0.335-3.683-0.668-1.345-0.338-2.348-1.347-2.348-2.353h3.683c0.341 1.006 1.681 2.353 2.348 3.021m7.05-7.715h-0.667c0.667-2.683 0.667-5.705 0.667-8.719 1.335-0.339 2.689-1.01 2.689-3.018 1.331-0.676 2.68-1.007 4.025-2.013 0.667 0.334 1.004 1.337 1.335 2.346-1.335 1.675-4.365 0.669-4.365 3.691l-2.013 0.671c0 2.012 0 4.024-0.336 5.368l0.336 0.333c0-0.333 0.341-0.671 1.018-1.342 1.331 0 2.68-0.335 4.025 0.671 0.667 0.338 0.667 2.012 1.335 2.012 0.672 0 1.344 0 1.676 0.669 0 0 0.672 0 0 0.338l-7.377 1.006c-0.677-1.006-2.348-1.006-2.348-2.013m-1.008 7.38c1.671 0 1.008-2.346 2.343-2.686h3.021c0 1.006-0.336 1.006-0.672 1.006-1.672 0-1.672 2.69-3.021 2.015-0.663 0-1.33 0.675-2.339 0 0-0.335 0-0.335 0.668-0.335m13.417-1.68h1.009c1.008 1.009 1.666 0 2.348 1.009 0.668 1.681 0.668 4.696-0.682 6.376-0.658 1.336-2.339 2.01-4.01 3.354l-2.353-1.344c-1.34-0.674-2.007-2.01-2.007-3.69 2.348-1.006 4.687-3.69 5.695-5.705m-14.426-86.874-3.688-0.672c-1.009-1.344-1.345-2.009-1.345-2.687l1.686 0.678c0.331 0 0.663-0.678 1.009-1.343-0.346-1.681-2.359-1.681-3.031-2.353-1.004-3.352 2.022-5.364 2.353-8.049h4.025c-1.676 3.016-2.012 7.715-2.012 8.721 0 1.681 0 4.027 1.003 5.705m3.688-2.681c-0.667 0-1.671-2.022-1.671-2.686 0-2.685 0.663-6.374 1.671-9.059h2.685c0 3.016 0.341 6.374 0.341 9.059-0.341 0 0.331-0.675-3.026 2.686m8.054-1.343c-0.663 0-2.344-1.01-2.344-1.681 0-1.341-0.667-8.721-0.667-8.721h2.348c0.999 3.016 3.011 7.046 3.011 8.721 0 1.34-0.999 1.681-2.348 1.681m43.273 2.008c1.345-0.665 1.345-2.349 1.345-2.687 0-1.002-0.672-2.008-1.345-2.677-0.667 0.669-0.667 1.675-1.34 2.677-0.677 0-1.003-1.674-1.003-2.343 0-3.021 1.335-5.368 2.343-7.38h3.021c-0.336 2.685-1.009 5.034-1.009 8.049 0 1.674 1.009 3.696 1.34 4.699l-3.352-0.338zm32.877 7.047-2.013 3.018c0.668 1.006 0.668 2.349 1.672 4.024 0.341 0 1.344-2.349 1.344-2.681 0-2.018 0-2.683-1.003-4.361m-2.353-6.709c0 1.678-2.012 2.681-3.352 5.705l1.34 2.343c1.003-0.667 2.352-1.673 2.352-3.354 0 0-0.34-1.004 0-1.676 0-0.337 0.668-0.337 0.668-1.009-0.668-1.003-0.668-1.003-1.008-2.009m-4.697 15.429c-2.343 0-1.004 4.696-6.036 4.696-1.004 0-1.672-1.677-3.016-2.016 0 0.339 0.331 2.347 0.331 2.347 0 0.679 0.341 2.018 1.681 2.687 2.675 0 2.017-1.006 4.024-1.677 1.004-0.331 1.686-1.01 3.016-1.01v-5.027zm-1.671-7.042c-2.348 0.331-2.348 3.015-2.694 3.352-1.671 2.012-4.015 0.337-5.696 0.337-0.672 2.012 0.327 2.012 0.327 3.353 1.013 0 2.026 0.672 3.025 0 1.686 0.672 2.69-1.003 4.366-1.003 0.331-0.675 1.013-2.35 1.339-2.687 0-1.343-0.326-1.678-0.667-3.352m-3.352-4.697c-1.686 1.004-2.685 1.34-4.711 1.34 0 1.345-0.999 3.018-1.672 3.018-2.012 0-1.671-1.339-3.352-1.339l3.016 3.018c0.336 0.669 0.336 0.669 1.009 0.669 0.999-0.669 1.344-1.003 2.353-1.003 0-0.675 0-1.006-0.341-2.012 1.013-0.672 1.681 0.331 2.348-0.672 1.004-0.334 2.008-0.675 2.008-2.015 0-0.335-0.658-1.004-0.658-1.004m-6.383 50.986c1.345 0.669 2.017 0.334 2.685 0 0-2.012 2.348-1.01 3.698-1.675 0.658-1.012 1.004-1.678 1.33-3.024-2.343 0.675-3.683 1.681-5.696 1.681-0.672 0-3.688-1.006-4.029-1.681-1.003 1.346 0.673 4.031 2.012 4.699m-1.003-8.723c1.003 1.006 2.675 2.348 4.029 2.348 2.344 0 4.361-1.677 4.361-3.352-2.017 0-2.354 0.334-3.689 0.334-1.681 0-3.698-0.671-4.701-2.348-0.668 1.342-0.336 2.014 0 3.018m10.397-4.363c1.008 0 1.681 0.672 2.353 0.672 1.676 0 3.021-2.68 3.347-4.696-2.68 1.678-6.704 2.681-9.057 2.681-1.34 0-5.364-1.672-6.704-3.015l-0.672 3.015c2.012 0.337 2.012 2.015 3.356 2.015 1.009 0 2.349 0.338 3.353 0.338 1.013 0 1.671 0.671 2.017 0.671 1.676 0 1.003-1.681 2.007-1.681m3.693-18.778c-1.009 0.331-3.352 0.666-3.352 1.675 0 1.337-0.672 1.678-2.348 1.678-1.35 0-2.354-0.341-4.361-1.01 0 0-1.009 1.344-1.354 2.687 0.682 0.335 3.361 1.004 4.711 1.004 2.343 0 4.692 0 4.692-1.004 0-1.343 2.012-1.677 2.012-5.03m-2.012 9.052c-0.673 0.669 0 2.012-1.681 2.012-0.668 0-1.681-1.003-1.681-1.003-0.672-0.34-2.68 1.003-2.68 0 0-1.681-1.335-2.35-3.016-2.35-0.672 0-1.344 0-2.017 0.335v3.356c4.366 0 4.03 1.339 6.037 1.339 1.35 0 2.353-0.671 3.357-0.671 1.681 0 0.682 0.671 2.353 0.671 1.676 0 2.344-1.339 3.347-1.677 0-1.003 1.009-2.347 1.009-3.69-2.344 0-4.697 0.672-5.028 1.678m-18.117-10.064c-0.667 2.015-2.017 4.024-2.684 6.042 0 0.335-0.336 0.335 0.331 0.669 0.336 0 1.686 0 1.686-0.334 0.331-0.672 1.003-1.678 1.003-2.681 0-1.347-0.672-2.353-0.336-3.696m-4.696-3.352c-1.014 0-1.014 0.667-1.014 2.008-0.326 2.018-0.998 3.693-1.671 5.709-0.667 2.681-2.343 5.027-3.693 8.049-0.331 1.339-2.007 2.012-3.352 3.018 1.681 0 3.352 0 4.702-1.338 0-0.674 0.326-1.012 1.335-2.018 2.353 0 1.681-3.018 3.693-4.355-1.014-1.01-1.34-1.679-2.012-2.354 0.998-0.668 2.012-1.002 2.348-2.012 0-2.012-0.336-4.358-0.336-6.707m-5.369-8.052c0.667 1.68 0.667 5.033 0 5.033-0.663 0.334-2.012 0-2.012 0.672 0 1.006 0.341 2.347 0.341 3.014 0 1.341-1.009 2.02-1.009 2.685 0 2.015 2.344 2.349 3.021 3.696 0.326-1.347 0.326-2.684 0.326-4.361 0-0.679 1.009-2.687 0-4.366 0-1.006 2.017-0.333 2.017-1.34 0-1.678-2.017-3.69-2.684-5.033m-3.016 17.446c0-0.675-1.004-1.343-1.345-1.343 0 0-1.676 1.678-2.017 3.353-0.326 1.34 1.014 3.687 1.014 3.687 0.336 0 0.662-0.666 1.003-0.666 0.341-0.34 0-1.344 0.341-2.35 1.004-0.671 1.671-2.012 1.004-2.681m-3.688-14.425c0 2.012-0.336 3.69-1.681 5.031 0 0.667 1.008 0.667 0.336 1.677 0 0-2.012 1.01-2.012 2.349 0 1.341 1.335 2.348 2.012 3.35 0 0.341 1.345-0.669 1.345-2.681 0-0.331 0-1.343-0.336-2.008-0.337-1.01 2.012-1.01 2.012-2.02 0-2.008-1.35-3.686-1.676-5.698m-3.026 25.158c1.004-1.009 2.353-2.349 2.353-3.355s-0.672-1.344-1.349-2.012c0 0-1.335 1.674-1.335 2.345 0 1.345 0 2.013 0.331 3.022m15.099 0.669c0.667-0.669 1.34-1.003 2.012-2.012v-2.685c-3.026 1.679-4.697 4.697-7.381 7.715 2.684 0 3.357-2.68 5.369-3.018m-22.811 5.368 2.684 1.341c0.999-1.004 2.349-1.341 3.016-1.676-1.008-1.006-3.693-1.342-5.7 0.335m3.357-41.931c-0.673 1.009-1.004 2.013-1.681 2.013 1.008 3.693-1.004 6.708-1.676 9.732v1.003c1.004-1.678 3.683-3.353 3.357-5.033 0.326-3.015 0.326-5.702 0.326-7.715h-0.326zm-4.697-5.027c-0.667 2.008-1.34 5.027-3.693 5.027-0.336 1.343-0.663 2.013-2.012 3.024l-2.68 0.329c0.332-1.34 2.344-1.34 0.999-3.353 1.345-1.003 2.348-1.003 3.03-2.681 0.663-1.003 0-2.346 0.327-3.025l-2.012-1.002c0 1.681 0.336 5.033-2.012 5.705-2.013-0.672-2.344 2.012-3.689 3.016-0.667 0-0.667 1.681-1.68 1.011-1.676-1.011-3.684 0-5.365-1.011l1.681 2.687c1.34 1.006 2.685 0.667 4.02 1.006l2.689 0.331c2.68 0 5.023-1.337 7.717-2.343 1.34-0.67 2.013-1.681 2.013-3.357 0.667-0.337 2.007-0.337 2.007-1.34-0.336-0.672-1.004-2.681-1.34-4.024m-10.397-0.679-1.013-1.002c-0.999 1.002-0.332 3.689-2.012 4.027-1.676 0-3.026 1.678-3.684 2.009l1.34 0.672s0.668 0.337 1.345 0c0.667-0.672 1.335-1.003 1.335-1.675 0.677-1.006 1.676 0 2.353-1.006 0.336-1.003 0.667-2.346 0.336-3.025m-10.738 12.418 1.676 4.024c1.345 0 2.353 0.671 3.011 0.671 1.35 0.338 2.358 0.338 3.362 0.338v-0.338c3.698 0 8.048 0.338 10.738-2.686l0.326-2.684c-1.34 1.009-3.352 1.009-4.019 2.684-1.345 0.337-2.344 0.337-4.025 0.337-1.344-0.337-3.02-0.337-4.355-0.337-0.341 0 0 0.337-0.677 0.674-2.008-0.674-4.025-0.674-6.037-2.683m-1.335 29.851c-2.022 3.018-1.013 5.705 0 8.049 0.663-2.01 0.999-4.022 1.335-5.703 0.336-1.343 2.348-2.008 3.021-3.015-1.345-0.334-3.693-1.009-4.356 0.669m-3.693-12.745c-2.017 1.678-3.357 3.687-5.369 6.374l5.369-1.009c1.004-0.672 3.016-3.018 4.024-4.022-0.672-0.675-2.679-1.343-4.024-1.343m0-9.061c-0.341 0-2.68 1.01-3.357 1.677-0.341 1.01-0.341 2.02-0.341 2.02h2.685l1.676-3.697h-0.663zm-6.036 36.228c-0.341 0 0-1.002-0.341-1.002 0-0.675-0.668-2.012-0.668-3.353-0.677-0.337-2.012-1.01-3.357-0.337v1.003c-0.331 0.675-0.331 2.012-0.331 2.687l-0.341 0.337c-1.009-0.337-1.009-1.012-1.009-1.678-0.336-0.671-1.003-1.346-1.003-2.349-1.34 0-2.012 0.337-3.016 1.003v3.024c0 0.665 0 0.665-0.341 0.665l-1.676-1.677c-1.34 1.012-1.676 3.693-1.676 5.368 5.369 3.021 12.073 2.015 16.097 0.338 0.677-0.338 1.345-0.338 2.013-0.673-0.332-2.012-0.995-5.033-3.021-6.37 0 1.337-0.663 2.012-1.33 3.014m-4.034-17.44-0.663 3.356c1.009 0.665 2.012 1.343 3.347 3.018 0-2.353-0.336-5.368-2.684-6.374m-2.349-19.79-2.007 2.679h5.028l1.009-2.008c-1.335-1.006-2.344-1.006-4.03-0.671m-4.687 6.376c0.327 1.003 1.33 1.337 2.008 2.343 0.672 1.01 2.012 2.687 2.343 3.691 1.681 1.006 2.353 1.006 3.698 1.006-0.341-2.01-1.345-2.685-3.026-5.03-1.003-0.673-3.015-1.007-5.023-2.01m-1.013 20.123c1.013 0 2.017 0 3.021-0.673 0-1.678 0.672-3.018 0.672-5.03-2.017 2.012-3.693 3.693-3.693 5.703m-1.013-15.093c-0.994 0-2.68-0.675-4.692 0 1.008 0.669 2.012 1.004 3.362 2.01l2.679 2.681h2.685c-1.004-2.01-2.008-4.022-4.034-4.691m-3.684-16.44c-0.667 2.349-2.343 4.699-4.355 4.699-1.009 1.006-2.022 2.008-2.348 3.014-1.004 1.01-2.013 0-3.357 1.01-1.345 0-3.021 0-4.356-1.01v1.01l2.343 2.687c2.344-0.338 5.37 0 6.037-1.677 1.681-1.01 3.352-2.02 3.693-2.687v-1.01c0.662-0.331 2.012-0.669 2.68-1.002 0-1.007-0.337-5.034-0.337-5.034m-3.688-7.712c-0.667 1.004 0 2.685-1.003 3.691 0 0.667 0.667 1.006 0.336 1.337-0.336 0.675-4.361 2.015-4.361 2.015-1.344 1.006-3.025 2.014-4.365 3.355-1.335 0.338-2.348-0.337-4.029-0.671v0.671c0.672 1.341 0.672 3.019 2.694 3.019 0.994 0 2.343 0 3.011-1.006 1.345 0 2.017-1.344 3.026-1.675 1.676-1.679 3.015-2.35 4.024-3.024 0-1.006 0.331-1.675 1.008-2.009 2.012 0 1.335-2.012 2.012-3.359l-2.353-2.344zm-3.688-6.036-2.353 6.036c-2.685 2.685-5.7 3.019-7.381 4.358-1.34 0.339-1.34-0.667-2.007 0 0 0.67 0 1.679 1.003 2.685h2.012l2.017-1.006c1.004-1.009 3.352-1.009 3.352-3.018 0-0.334-0.331-0.675 0.673-2.015l3.357-1.004 0.326-2.684-0.999-3.352zm-12.745-6.374c0 1.675 1.004 3.687 1.004 5.695 0 0-1.345 1.344-2.685 1.344-1.004-0.665-1.004-1.344-1.34-2.346-1.008-2.01-3.02-4.024-3.357-6.036-0.341 0-0.341 0.331-0.341 0.331 0 3.358 0.341 9.057 2.354 11.41 1.68 2.012 3.01 2.012 5.042 2.346l1.671-0.334-1.344-2.012c1.344-0.672 3.356-2.016 3.356-4.024 0-2.687-4.36-6.374-4.36-6.374m-8.38 4.693c-0.341 1.34-1.349 3.024-3.031 3.024-1.334-2.686-1.675-3.696-0.331-7.717-1.003-1.012-1.686-1.343-3.025-2.016-0.668 1.341-0.668 3.691-0.668 5.034 0 2.346 0.336 4.699 1.009 6.708 0.998 1.003 1.681 2.684 2.684 3.688h3.684c-1.671 0-1.671-1.676-1.671-2.685 1.008-0.331 2.343-0.668 2.343-2.347 0-1.343-0.331-2.687-0.994-3.689m-7.727 0c-0.331 0-1.335 1.002-2.344 1.002-1.008-2.008 0-3.349 0-5.695 0-1.012-0.341-2.016-0.341-2.016-0.667 0-2.002 1.341-2.343 2.685v5.364l3.016 3.693c2.012-1.344 2.684-3.352 2.012-5.033m21.476 44.952c0.336 1.337 1.33 2.01 1.671 2.346 1.008-0.336 1.676-0.336 3.021-0.671-1.681-1.675-3.362-2.353-4.025-4.359 0 1.003-0.331 2.006-0.667 2.684m0.336 38.909 2.675 1.006-1.681-2.012c0.341-3.356-0.994-5.705-0.994-8.72l-1.686 5.364c0.341 1.344 0.673 2.685 1.686 4.362m0 6.708c0.663 1.004 0.994 2.01 2.002 3.019v-4.025l-2.338-0.671 0.336 1.677zm11.732-53.003c0.341 0.337 0.672 0 1.349 0l-1.349-5.028c-1.671-1.344-4.019-0.669-6.032-0.669 2.68 0.669 4.692 3.687 6.032 5.697m-3.352 4.027c0-1.34-0.667-3.019-2.343-4.693-0.337-0.34-1.35-1.009-1.35-1.009 0 2.012 1.013 3.689 1.013 5.368 1.009 0.334 2.013 1.009 2.68 0.334m3.693 4.024c-2.012 0.672-4.36 2.687-5.364 4.363-0.672 1.34-1.009 3.021-1.009 4.024 1.34 0 2.339-1.003 2.68-1.676v-0.336c1.681-2.012 3.352-3.688 3.693-6.375m4.356 5.369-1.009-4.359c-1.004 2.012-2.012 4.024-2.339 6.374l3.348-2.015zm20.803-9.727c-1.685 1.009-4.706 1.343-4.034 3.352 0.677 1.678 1.681 2.016 2.349 2.687 0.336-2.346 0.672-4.027 1.685-6.039m-31.195 62.727c0.672 0 1.676 0.338 2.002 1.007 1.686 0.333 2.689 2.012 4.696 1.006 1.35 0 2.685-0.673 3.694-1.006 0-0.669 0-1.007 0.677-1.675 2.007 0 2.007-2.018 3.02-3.691 1.004-0.334 2.008-0.334 2.68-0.334 2.007-0.672 3.693-0.672 4.356-1.678 2.684 1.678 5.364 2.012 8.385 1.678 0.336 1.003 1.013 2.35 1.344 4.025 0.341-1.01 0.341 0 1.004 0 1.349 1.006 3.03 2.681 5.369 2.008 1.344-1.002 3.683-0.333 5.033-2.008 1.008-1.344 1.676-3.354 2.689-5.034-1.013-2.012 0-4.696-2.012-5.705l-2.027-2.01c-0.658 0-0.658-0.671-1.666-0.671 1.008-2.35 0.336-5.702-0.673-8.049 0.673 0.335 1.681 0.335 1.681 1.338 0.332-0.332 0-1.003 0-1.338v-1.006c0-1.677-1.008-3.356-2.353-4.699-0.672-2.009-2.348-4.693-4.692-5.03v-0.673c5.028 0 9.053-1.34 13.754-3.689v-2.347c-4.024 2.347-8.39 4.024-13.417 4.361 0-1.008 0-2.014-0.337-2.345 4.02-2.016 7.703-3.693 11.065-6.712v-3.018c-3.362 3.352-7.045 6.708-11.406 7.714-0.326-0.669-1.671-1.34-2.012-2.683-2.339 1.677-5.028 3.351-7.712 3.689-1.004 0-1.671 3.69-1.671 3.69 1.671 0.669 2.679 1.678 3.347 3.356h1.344c0.999 0 0.999 0.672 0.999 1.678 0 2.009-4.355 2.009-6.368 2.009-2.353 0-4.024 0-5.374-1.002-0.667 0-0.326-1.007-0.326-1.679 0-0.334 1.004-1.006 1.004-1.006 0.672 0 1.339 0.672 2.012 0.672-0.336-2.015 0.331-3.021 2.353-4.028l-0.341-3.355c-4.024 0-6.709-1.679-9.729-3.018-1.009 0.671-1.676 1.677-2.344 2.683-4.024-1.344-11.074-6.708-11.074-6.708v2.346c3.026 2.687 7.05 4.024 10.07 5.703v2.349c-1.349 0.669-2.689 0-4.029 0-3.015-0.335-6.041-1.674-8.058-3.355 0 1.006-0.331 2.346-0.331 2.346 3.693 2.016 8.389 3.69 12.745 3.022v1.343c-0.327 0.672-0.327 1.678-1.004 1.678-2.012 2.009-4.024 5.031-4.024 7.039l1.345 0.675c-0.673 2.012-1.345 7.043 0 8.72-2.012 1.004-4.025 2.684-4.697 4.025-0.672 1.678-1.345 2.684-1.676 4.699 1.004 2.007 1.676 2.681 2.685 4.693m47.628-24.487c0-0.333-0.667-3.355-0.667-3.355l-2.689-0.669 1.676 7.38c0.677-1.343 1.68-2.683 1.68-3.356m0.342-25.495 3.347-3.018c-2.012 0-4.356-1.006-5.369 1.006 0.677 0.336 1.344 1.346 2.022 2.012m2.674 16.437c0.673-1.34 0.673-2.012 1.34-2.683 1.345 0.671 1.345-1.006 1.681-1.337 0.331-1.01 1.013-2.016 1.013-3.022-2.017 0-3.025 1.006-4.034 3.022 0 1.006-0.331 2.345 0 4.02m6.378-14.425c-0.331-1.337-1.686 0-2.012 0h-3.026c-0.331 0.675-0.667 1.012-0.667 1.677 1.344 0.342 2.348 1.01 3.361 0.342 0.658-1.007 1.34-2.019 2.344-2.019m-16.77-35.553c0 1.002 0.658 2.012 2.008 2.679 2.012-0.667 3.688 3.697 5.71 1.341 1.003-0.331 2.002-0.331 2.674-0.331 2.358-1.01 3.021-3.018 4.034-4.696-1.676 0-3.025 0-4.034 1.678-0.331 0-1.003 1.002-1.339 0.331-1.677-1.337-3.357 1.01-5.369 0.671-0.999-1.002-2.013-1.673-3.684-2.008v0.335zm3.684 20.796c1.339 1.009 3.025 1.009 3.692 1.343 1.345-1.343 2.685-3.693 5.033-5.036-1.344 0-3.688 0-5.033 1.008-2.012 1.006-2.679 1.679-3.692 2.685m-0.668-5.368c1.004-0.335 2.68-1.341 3.693-2.012h-1.013c-3.688-1.341-6.704 1.006-9.725 3.021 1.676 0.666 4.029 1.003 6.037 1.003l1.008-2.012zm0 11.071c-1.676-0.335-3.016 1.342-4.697 2.014-0.672 2.01-0.672 4.025-1.344 5.028 1.344-1.003 4.365-1.003 3.683-4.024 0-1.004 1.35-1.676 2.358-3.018m17.437-3.691-1.671-0.669c-3.698 0-5.369 1.007-7.05 2.35 1.345 0 3.026 1.675 3.026 1.675 1.681-1.675 4.024-3.018 5.695-3.356m55.356 44.277c-1.003 1.344-2.353 3.021-3.693 3.021 1.004 0 2.349 1.004 4.024 1.004 0.673-1.675 2.013-2.681 2.349-4.025l0.336-2.01c-0.672 1.341-2.012 2.01-3.016 2.01m-10.74 5.031c-0.672 1.009-1.676 0-2.343 0-0.672 0-1.009 0-2.348 1.009 2.007 0 3.015 1.006 4.691 1.681 1.345-1.01 2.69-1.343 3.693-2.69h-3.693zm32.88-17.437c-4.697 4.695-10.066 7.042-14.09 11.737-2.012 2.013-3.693 4.025-5.033 6.709-1.681 1.681-2.685 2.684-4.687 3.69 0.327-1.006 0.668-2.009 1.004-3.019h-0.336c-1.686 0-3.357 1.01-4.702 2.013l1.345 1.343c-0.341 0.669-1.345 0.669-2.013 0.669-5.368 1.009-10.406-2.012-15.77-3.015v-0.675c3.357-1.006 4.024-5.031 6.046-7.046h2.007c0.668 0 1.676-0.669 2.349-0.669 0 0.669-0.673 2.013-0.673 2.013 0.673 0.671 1.345 0.671 2.012 0 1.677-1.006 4.029 0.671 5.701-2.013-2.012 0-4.024 0-5.701-1.009 0-0.332 1.009-1.003 0.673-1.674-1.681 0.671-3.693 0-4.361 1.342l-0.336-0.333c2.012-2.35 5.033-4.362 8.053-5.368 4.361-0.671 8.049 1.337 12.41 0.335 15.434-7.381 26.167-24.822 26.167-42.269 0-24.824-14.089-34.879-23.147-34.879-1.676 0-4.36 1.003-5.369 2.009 1.009 3.688 1.672 7.712 1.672 13.751 0 14.426-5.701 29.855-13.408 37.907-3.693 3.689-7.727 6.708-12.083 6.708-2.012 0-4.024 0-5.359-1.677-1.676-1.342-2.69-4.029-2.354-5.706-2.679-2.012-7.039-3.015-10.401-3.015-3.688 0-8.38 1.339-12.746 4.692v5.035c-1.003 0.337-4.365 2.345-2.689 4.024 1.009-0.331 1.686-1.006 2.017-1.341-0.331 2.347-0.331 5.03-2.017 7.046-0.662 0-1.676 0-2.679 0.672-1.004 1.006-2.008 2.346-2.008 4.021 1.004-1.675 2.68-1.006 3.688-2.008-1.68 4.024-1.008 5.701-4.024 11.737-0.667 3.019-3.693 4.694-5.705 6.709-1.009 0.671-1.34 1.681-2.68 1.681-1.345 0.331-1.345 2.009-1.345 3.015 0.342 0 1.345-0.669 2.013-1.006-2.013 4.696-3.357 9.727-7.718 12.414l-1.013-0.675h-5.359c0.672 0.675 2.017 1.008 3.02 1.681-1.003 1-1.671 1.343-3.683 1.343-1.013-0.343-2.348-1.343-3.693-1.343h-0.341c0 1-0.331 2.346 1.686 3.018-2.017 0.334-3.698 0.334-6.051 0-0.327-1.675-1.33-2.684-1.33-4.024-1.009-0.675-1.35-1.685-2.353-2.687 0 2.012 1.003 4.027 1.344 6.039-1.344-0.337-3.025-1.346-3.688-1.346-2.689 1.346-6.046 2.687-7.386 2.687 2.017-1.341 1.013-3.687 1.34-5.368l-1.34 0.675c-0.331 1.34-2.007 2.349-2.343 4.024-2.017 0-3.362-0.672-5.038-1.675v-0.343c1.003 0 2.353-1 3.021-2.006-2.349 0-4.025 1.006-6.373 1.006 0 0 0 0.334-0.341 0.334-0.999-0.334-2.002-1.34-2.68-2.015-2.348-2.012-4.024-3.691-5.028-6.709 0.663 0 1.671 0 2.012-0.334-1.349-0.331-2.012-2.01-3.356-2.347v-5.033c-1.009-1.006-2.344-2.015-3.021-4.025-1.671-5.364-2.012-11.403-2.012-18.112-0.341-1.343-1.014-1.678-1.671-2.016v-5.368c0 0.007 2.012 2.016 3.016 2.685v-4.359c-1.345 0-2.359-1.677-2.359-2.684 0-1.343 0.346-2.68 0.346-4.024 0-0.675 0-0.675 0.327-1.341 0 0.666 0.682 1.341 1.686 1.678 0 0 0.667 0.665 2.007 0.665-1.004-1.002-1.34-2.343-2.007-3.689l-1.004-1.003s-0.341-0.673-0.341-1.009c1.345-7.04 3.352-13.083 6.046-19.788-2.694-4.362-5.705-12.748-7.717-20.796-1.681 1.671-4.029 2.012-6.046 2.012-2.008-0.341-4.02-1.006-5.37-3.018-2.007 1.006-4.691 0.667-6.031-0.67-3.016-2.687-3.016-4.027-3.016-6.043-0.672-0.665-2.017-2.349-2.017-4.695 0-3.018 0.336-5.03 2.017-7.715h50.986c-0.341 1.006-1.009 2.35-1.676 3.016-1.004 2.018-0.341 4.699-0.341 6.707 1.008 2.022 2.017 4.031 3.357 5.706 0.331 1.009 0 1.009 0.331 1.343l2.353 0.67c1.345 0 2.349 1.011 4.025 1.011 1.008-1.681 1.008 1.004 2.679 1.676 3.698 0.667 7.391 0 9.403-2.687 0-0.67 0.327-0.67 0.327-1.004h-1.676c-2.007 1.004-4.356 2.015-6.709 1.004 0-1.004-0.327-1.004-0.327-2.013v-1.675c1.331 0 2.339-1.344 3.684-2.009 0.667 1.003 2.689 2.009 4.024 2.009 1.676 0 4.029-1.006 4.029-3.693v-3.687c1.34-1.34 3.016-1.677 4.697-2.346-0.677-1.343-1.681-1.343-2.689-1.343h-2.68c-0.336 0.331-1.009 0.331-1.009 1.343-1.003-1.343-1.671-2.684-2.348-4.028h39.254c-0.677 1.344-1.349 2.35-1.686 3.016-0.667 2.018-0.667 4.699-0.667 6.707l3.683 5.034c2.017 0 3.688 0.672 7.381 1.009 0.668 1.006 0 1.676 3.021 1.676 2.348 0 4.024-0.67 4.697-1.004 0.336-0.672 0.336-0.672 0-1.347-0.673-0.665-2.013 0.675-3.011 0.338-0.678-0.672 0.326-1.003 0.326-1.675 0.672-0.671-3.016 0.672-3.016 0.672s-0.667-2.016-1.003-2.681c0 0 1.339-1.343 2.007-2.022 0.672-1.002-1.004-2.008-1.004-3.012-0.667 0.335-2.017 1.338-2.017 1.004-0.667-2.681 0-5.03-0.336-7.715h3.698l0.331 5.703c0.336 3.356 4.361 9.388 6.709 9.388 1.34 0 2.353-0.665 3.352-1.337 0.673-1.344 2.344-2.009 2.344-2.687 0-0.665-1.004-1.006-2.675-1.006-0.668 0-0.668 1.006-1.681 1.684l-2.012-2.022s2.353-2.008 2.353-3.349c0-1.677-0.341-2.346-1.354-3.358l-2.008 4.03c-1.003 0-2.679-2.012-2.679-3.018 0-1.343-0.673-2.016-0.673-4.028h20.799c2.348 0 4.361 0.673 6.709 2.012h4.024c8.39 0 15.094 2.347 21.13 8.39 8.059 8.051 12.755 20.794 12.755 33.204 0 14.756-6.046 29.52-16.774 40.257" fill="#f60"/>
     </g>
    </g>
   </g>
  </g>
 </g>
</svg>
